<svg width="18" height="18" viewBox="0 0 18 18" fill="none" xmlns="http://www.w3.org/2000/svg">
<path d="M15.6413 1.2189C16.0967 1.47408 16.4321 1.89967 16.5738 2.40208C16.7154 2.90449 16.6518 3.4426 16.3968 3.89809L9.92297 15.4597C9.75899 15.7525 9.53159 16.0049 9.25741 16.1985C8.98324 16.392 8.66925 16.5218 8.33844 16.5782C8.00763 16.6347 7.66837 16.6164 7.34553 16.5248C7.02268 16.4332 6.72442 16.2705 6.4726 16.0486L1.56591 11.7264C1.17408 11.3813 0.935399 10.8946 0.902381 10.3735C0.869363 9.85237 1.04471 9.33948 1.38985 8.94765C1.73499 8.55582 2.22164 8.31714 2.74276 8.28412C3.26388 8.2511 3.77677 8.42645 4.1686 8.77159L7.24716 11.4834C7.2786 11.5111 7.31582 11.5314 7.35611 11.5428C7.3964 11.5543 7.43874 11.5566 7.48003 11.5496C7.52132 11.5425 7.56053 11.5264 7.59478 11.5023C7.62904 11.4782 7.65748 11.4468 7.67804 11.4103L12.9616 1.97434C13.2168 1.51881 13.6425 1.1833 14.145 1.04163C14.6476 0.899962 15.1858 0.963726 15.6413 1.2189V1.2189Z" fill="url(#paint0_linear_194_2)"/>
<path d="M15.6413 1.2189C16.0967 1.47408 16.4321 1.89967 16.5738 2.40208C16.7154 2.90449 16.6518 3.4426 16.3968 3.89809L9.92297 15.4597C9.75899 15.7525 9.53159 16.0049 9.25741 16.1985C8.98324 16.392 8.66925 16.5218 8.33844 16.5782C8.00763 16.6347 7.66837 16.6164 7.34553 16.5248C7.02268 16.4332 6.72442 16.2705 6.4726 16.0486L1.56591 11.7264C1.17408 11.3813 0.935399 10.8946 0.902381 10.3735C0.869363 9.85237 1.04471 9.33948 1.38985 8.94765C1.73499 8.55582 2.22164 8.31714 2.74276 8.28412C3.26388 8.2511 3.77677 8.42645 4.1686 8.77159L7.24716 11.4834C7.2786 11.5111 7.31582 11.5314 7.35611 11.5428C7.3964 11.5543 7.43874 11.5566 7.48003 11.5496C7.52132 11.5425 7.56053 11.5264 7.59478 11.5023C7.62904 11.4782 7.65748 11.4468 7.67804 11.4103L12.9616 1.97434C13.2168 1.51881 13.6425 1.1833 14.145 1.04163C14.6476 0.899962 15.1858 0.963726 15.6413 1.2189V1.2189Z" fill="url(#paint1_radial_194_2)"/>
<path d="M15.6413 1.2189C16.0967 1.47408 16.4321 1.89967 16.5738 2.40208C16.7154 2.90449 16.6518 3.4426 16.3968 3.89809L9.92297 15.4597C9.75899 15.7525 9.53159 16.0049 9.25741 16.1985C8.98324 16.392 8.66925 16.5218 8.33844 16.5782C8.00763 16.6347 7.66837 16.6164 7.34553 16.5248C7.02268 16.4332 6.72442 16.2705 6.4726 16.0486L1.56591 11.7264C1.17408 11.3813 0.935399 10.8946 0.902381 10.3735C0.869363 9.85237 1.04471 9.33948 1.38985 8.94765C1.73499 8.55582 2.22164 8.31714 2.74276 8.28412C3.26388 8.2511 3.77677 8.42645 4.1686 8.77159L7.24716 11.4834C7.2786 11.5111 7.31582 11.5314 7.35611 11.5428C7.3964 11.5543 7.43874 11.5566 7.48003 11.5496C7.52132 11.5425 7.56053 11.5264 7.59478 11.5023C7.62904 11.4782 7.65748 11.4468 7.67804 11.4103L12.9616 1.97434C13.2168 1.51881 13.6425 1.1833 14.145 1.04163C14.6476 0.899962 15.1858 0.963726 15.6413 1.2189V1.2189Z" fill="url(#paint2_radial_194_2)"/>
<g filter="url(#filter0_f_194_2)">
<path d="M14.3271 3.86157L8.55421 14.0681C8.51323 14.1407 8.45663 14.2033 8.38849 14.2514C8.32035 14.2994 8.24239 14.3317 8.16024 14.3459C8.07808 14.3601 7.9938 14.3559 7.91348 14.3335C7.83317 14.3112 7.75882 14.2713 7.69584 14.2166L3.63965 10.7033" stroke="url(#paint3_linear_194_2)" stroke-width="2" stroke-linecap="round"/>
</g>
<defs>
<filter id="filter0_f_194_2" x="1.63965" y="1.86133" width="14.6875" height="14.4929" filterUnits="userSpaceOnUse" color-interpolation-filters="sRGB">
<feFlood flood-opacity="0" result="BackgroundImageFix"/>
<feBlend mode="normal" in="SourceGraphic" in2="BackgroundImageFix" result="shape"/>
<feGaussianBlur stdDeviation="0.5" result="effect1_foregroundBlur_194_2"/>
</filter>
<linearGradient id="paint0_linear_194_2" x1="0.898437" y1="0.967773" x2="16.9425" y2="1.71299" gradientUnits="userSpaceOnUse">
<stop stop-color="#238A59"/>
<stop offset="1" stop-color="#00BB62"/>
</linearGradient>
<radialGradient id="paint1_radial_194_2" cx="0" cy="0" r="1" gradientUnits="userSpaceOnUse" gradientTransform="translate(15.3652 2.39846) rotate(122.005) scale(1.78063 1.79279)">
<stop stop-color="#238A59"/>
<stop offset="1" stop-color="#84C2A5" stop-opacity="0"/>
</radialGradient>
<radialGradient id="paint2_radial_194_2" cx="0" cy="0" r="1" gradientUnits="userSpaceOnUse" gradientTransform="translate(14.9641 14.5726) rotate(-93.802) scale(14.9438 23.1723)">
<stop stop-color="#44A476" stop-opacity="0"/>
<stop offset="0.786" stop-color="#34BC7B" stop-opacity="0.06"/>
<stop offset="0.961" stop-color="#18814F"/>
</radialGradient>
<linearGradient id="paint3_linear_194_2" x1="14.1145" y1="4.99388" x2="8.2634" y2="15.0446" gradientUnits="userSpaceOnUse">
<stop stop-color="#399A6C"/>
<stop offset="1" stop-color="#238254"/>
</linearGradient>
</defs>
</svg>
